<svg width="317" height="60" viewBox="0 0 317 60" fill="none" xmlns="http://www.w3.org/2000/svg">
<path d="M304.259 19.8053H281.041L268.294 59.9931H278.314L280.233 52.7997L280.506 51.8027H304.788L305.061 52.7933L306.98 59.9865H317L304.254 19.7988L304.259 19.8053ZM282.692 43.9167L286.107 31.7185C286.327 30.8962 286.541 30.0351 286.755 29.1352C286.844 28.7661 286.933 28.3841 287.017 27.9956H298.278C298.367 28.3841 298.457 28.7661 298.546 29.1352C298.759 30.0351 298.973 30.8962 299.192 31.7185L302.608 43.9167H282.692Z" fill="#090E23"/>
<path d="M245.515 51.8095H239.67L221.15 19.8057H210.946H210.952H206.229V59.9999H215.667V27.9637L234.212 59.9999H254.953V19.8057H245.515V51.8095Z" fill="#090E23"/>
<path d="M38.8936 19.8053L29.7286 35.7133H9.4383V28.2416L9.47988 19.8053H0V59.9931H9.4383V44.085H29.7286L38.8936 59.9931H48.724C48.724 59.9931 41.8279 47.7366 37.3612 39.8959C41.8279 32.0552 48.724 19.7988 48.724 19.7988H38.8936V19.8053Z" fill="#090E23"/>
<path d="M110.035 60.0002C110.035 60.0002 104.92 50.9099 100.65 43.3799C104.16 42.9008 108.977 39.2038 108.977 32.3213C108.977 30.2753 108.615 28.3977 107.902 26.6949C107.189 24.9921 106.162 23.5935 104.837 22.4929C103.661 21.5217 102.259 20.829 100.638 20.4211C99.0815 20.026 96.3787 19.8189 92.5302 19.8059V19.793H69.6619V19.8059H62.0708V59.9937H71.5092V44.0856H91.0448L100.21 59.9937H110.041L110.035 60.0002ZM98.8679 32.0234C98.8679 34.0565 97.3471 35.7075 95.476 35.7011C93.4986 35.6945 90.6886 35.6881 90.641 35.7205H71.5092V28.2488L95.4941 28.2359C97.3592 28.2359 98.874 29.8869 98.8679 31.9199V32.0234Z" fill="#090E23"/>
<path d="M193.365 60V51.065H174.043C180.458 45.9048 184.633 37.6303 184.633 28.3004C184.633 12.6966 172.962 0 158.606 0C144.249 0 132.578 12.6966 132.578 28.3069C132.578 37.6303 136.747 45.9048 143.162 51.065H123.846V60H193.365ZM160.631 46.8825V32.8068L160.673 32.852L169.778 22.9265L166.915 19.8058L160.631 26.6559V16.3871H156.58V35.9792L150.349 29.1875L147.486 32.3082L156.58 42.2208V46.8825C148.045 45.7883 141.398 37.8763 141.398 28.3004C141.398 17.9799 149.12 9.58884 158.606 9.58884C168.091 9.58884 175.813 17.9799 175.813 28.3004C175.813 37.8763 169.167 45.7883 160.631 46.8825Z" fill="#090E23" />
</svg>
